#!OML:ASF I:\Actors\actors\Patient Classification 1\Patient 1\Session 1\Subject1.ASF
:FULLY-SPECIFIED
:DEGREES
406
root 0.197822 17.5486 9.09039 20.1795 -43.0775 -10.7805
lowerback -5.23681 -5.63181 5.74533
upperback -11.3466 -7.58742 4.97598
thorax -9.19645 -4.14143 2.3795
lowerneck -4.47041 -7.38437 -7.36871
upperneck 24.2503 -10.9797 4.06679
head 8.94637 -5.67769 1.54598
rclavicle -4.17448e-014 1.12512e-013
rhumerus -18.4119 25.3583 -97.0161
rradius 134.25
rwrist 5.78662
rhand 24.7445 -33.2722
rfingers 7.12502
rthumb 48.9265 -55.0409
lclavicle -4.17448e-014 1.12512e-013
lhumerus -27.1678 -30.4705 110.277
lradius 126.161
lwrist 10.1024
lhand -5.81815 -19.5501
lfingers 7.12502
lthumb 20.0072 9.43988
rfemur -22.8623 32.5592 15.2036
rtibia 10.5239
rfoot -8.26988 4.57906
rtoes -5.6203
lfemur 16.8536 -47.3417 -30.1452
ltibia -6.59395
lfoot -107.69 48.9801
ltoes 52.0178
407
root 0.190877 17.5484 9.08535 20.2235 -43.1277 -10.7673
lowerback -5.17717 -5.62781 5.8197
upperback -11.3855 -7.57488 5.01353
thorax -9.28151 -4.14051 2.39232
lowerneck -4.60986 -7.36118 -7.38356
upperneck 24.4722 -10.9237 3.93903
head 9.03953 -5.66297 1.50194
rclavicle -8.17999e-014 -1.90833e-014
rhumerus -18.5206 25.463 -97.0269
rradius 134.287
rwrist 5.70877
rhand 24.611 -33.4027
rfingers 7.12502
rthumb 48.8038 -55.2316
lclavicle -8.17999e-014 -1.90833e-014
lhumerus -27.1002 -30.3764 110.238
lradius 126.136
lwrist 9.90993
lhand -5.89943 -19.538
lfingers 7.12502
lthumb 19.929 9.4601
rfemur -22.9507 32.6343 15.1617
rtibia 10.5436
rfoot -8.28129 4.55056
rtoes -5.77344
lfemur 16.8435 -47.3614 -30.12
ltibia -6.64389
lfoot -107.759 48.9246
ltoes 52.0944
408
root 0.1845 17.5485 9.08082 20.26 -43.1758 -10.7553
lowerback -5.02225 -5.61322 5.87577
upperback -11.4551 -7.5387 5.05857
thorax -9.45323 -4.12596 2.43797
lowerneck -4.6772 -7.3405 -7.43097
upperneck 24.6493 -10.8866 3.88171
head 9.11133 -5.65527 1.48845
rclavicle -7.30534e-014 4.65156e-014
rhumerus -18.6684 25.5491 -97.0281
rradius 134.335
rwrist 5.73764
rhand 24.511 -33.3826
rfingers 7.12502
rthumb 48.7118 -55.2563
lclavicle -7.30534e-014 4.65156e-014
lhumerus -27.1373 -30.3079 110.292
lradius 126.145
lwrist 9.81267
lhand -5.87941 -19.5686
lfingers 7.12502
lthumb 19.9483 9.4275
rfemur -23.0161 32.631 15.1483
rtibia 10.5611
rfoot -8.26262 4.61624
rtoes -5.56148
lfemur 16.9245 -47.3738 -30.1609
ltibia -6.72866
lfoot -107.771 48.6631
ltoes 52.2458
409
root 0.179754 17.5485 9.07614 20.3191 -43.2251 -10.7579
lowerback -4.93782 -5.57445 5.98573
upperback -11.4743 -7.47868 5.04931
thorax -9.54169 -4.10598 2.38171
lowerneck -4.63055 -7.31917 -7.47143
upperneck 24.6234 -10.8907 4.03276
head 9.10483 -5.64756 1.54777
rclavicle -7.46436e-014 -6.52014e-014
rhumerus -18.6863 25.5524 -97.0737
rradius 134.322
rwrist 5.87063
rhand 24.3446 -33.135
rfingers 7.12502
rthumb 48.5587 -55.0829
lclavicle -7.46436e-014 -6.52014e-014
lhumerus -27.1133 -30.3618 110.232
lradius 126.18
lwrist 9.9384
lhand -5.75333 -19.6265
lfingers 7.12502
lthumb 20.0695 9.35693
rfemur -23.113 32.5803 15.1455
rtibia 10.6004
rfoot -8.25676 4.71355
rtoes -5.41085
lfemur 16.9302 -47.3907 -30.1548
ltibia -6.74852
lfoot -107.787 48.4136
ltoes 52.346
410
root 0.17462 17.5485 9.07117 20.4067 -43.2663 -10.7727
lowerback -4.9705 -5.52363 6.11369
upperback -11.4497 -7.41484 5.00923
thorax -9.51842 -4.08695 2.26257
lowerneck -4.68906 -7.34306 -7.37831
upperneck 24.6541 -10.9497 4.09029
head 9.12765 -5.66007 1.54291
rclavicle -2.38542e-014 2.8625e-014
rhumerus -18.6088 25.4825 -97.1474
rradius 134.261
rwrist 6.00289
rhand 24.1598 -32.9587
rfingers 7.12502
rthumb 48.3886 -54.9881
lclavicle -2.38542e-014 2.8625e-014
lhumerus -27.0638 -30.4739 110.127
lradius 126.21
lwrist 10.0599
lhand -5.73966 -19.6813
lfingers 7.12502
lthumb 20.0826 9.30074
rfemur -23.2452 32.5548 15.1261
rtibia 10.6485
rfoot -8.25668 4.76481
rtoes -5.42358
lfemur 16.8085 -47.4242 -30.0426
ltibia -6.71838
lfoot -107.862 48.382
ltoes 52.32
411
root 0.167975 17.5492 9.06549 20.495 -43.2939 -10.8164
lowerback -4.996 -5.48506 6.19605
upperback -11.4308 -7.3643 5.02597
thorax -9.49118 -4.06802 2.22928
lowerneck -4.72416 -7.35043 -7.44973
upperneck 24.7438 -10.985 4.20061
head 9.17887 -5.67214 1.58463
rclavicle -1.21259e-014 6.0033e-014
rhumerus -18.5345 25.4264 -97.1191
rradius 134.219
rwrist 6.03597
rhand 24.106 -32.9316
rfingers 7.12502
rthumb 48.3392 -54.9846
lclavicle -1.21259e-014 6.0033e-014
lhumerus -27.0504 -30.5109 110.155
lradius 126.19
lwrist 10.038
lhand -6.56388 -19.3321
lfingers 7.12502
lthumb 19.2902 9.73118
rfemur -23.3349 32.609 15.1299
rtibia 10.6751
rfoot -8.25706 4.7667
rtoes -5.30146
lfemur 16.711 -47.4584 -29.902
ltibia -6.71582
lfoot -107.928 48.4472
ltoes 52.2352
